<svg xmlns="http://www.w3.org/2000/svg" width="256" height="256" viewBox="0 0 100 100"><rect width="100" height="100" rx="50" fill="#0a0729"></rect><path d="M8.60 55.40L8.30 57.41Q8.27 57.41 8.12 57.46Q7.97 57.51 7.79 57.61Q7.61 57.71 7.46 57.82Q7.31 57.94 7.31 58.04L7.31 58.04L7.31 58.07Q7.31 58.13 7.38 58.20L7.38 58.20L7.22 58.37Q7.08 58.30 7.08 58.27L7.08 58.27Q7.08 58.23 7.10 58.23Q7.12 58.23 7.12 58.20L7.12 58.20L7.08 58.20Q7.05 58.20 7.00 58.23Q6.95 58.27 6.89 58.30L6.89 58.30Q6.69 58.23 6.60 58.15Q6.52 58.07 6.46 57.99Q6.39 57.90 6.29 57.84Q6.19 57.77 5.99 57.77L5.99 57.77Q6.06 57.87 6.16 57.95Q6.26 58.04 6.26 58.30L6.26 58.30L6.26 58.37Q6.16 58.37 6.04 58.27Q5.93 58.17 5.83 58.04L5.83 58.04Q5.70 58.04 5.61 58.15Q5.53 58.27 5.47 58.37L5.47 58.37Q5.37 58.20 5.07 57.97Q4.77 57.74 4.61 57.57L4.61 57.57L4.67 57.41L4.61 57.41Q4.61 57.31 4.54 57.29Q4.48 57.28 4.38 57.23Q4.28 57.18 4.21 57.08Q4.15 56.98 4.15 56.78L4.15 56.78Q4.15 56.52 4.34 55.92L4.34 55.92Q4.28 55.73 4.28 55.73L4.28 55.73Q4.28 55.59 4.38 55.56Q4.48 55.53 4.61 55.48Q4.74 55.43 4.84 55.33Q4.94 55.23 4.94 54.97L4.94 54.97Q4.94 53.65 5.02 53.12Q5.10 52.59 5.20 52.36Q5.30 52.13 5.38 51.98Q5.47 51.83 5.47 51.27L5.47 51.27Q5.33 51.40 5.27 51.40L5.27 51.40Q5.24 51.40 5.17 51.34L5.17 51.34L5.24 49.32Q5.30 49.09 5.37 48.68Q5.43 48.27 5.43 48.23L5.43 48.23L5.83 47.34L5.83 47.05L5.86 46.91Q5.90 46.49 5.98 46.25Q6.06 46.02 6.13 45.88Q6.19 45.73 6.26 45.55Q6.32 45.36 6.39 45.03L6.39 45.03L6.39 44.70L5.10 44.87L4.28 45.07L4.05 45.07Q4.01 45.07 3.95 45.12Q3.88 45.17 3.82 45.17L3.82 45.17L3.82 45.13Q3.62 45.13 3.62 45.07Q3.62 45.00 3.49 45.00L3.49 45.00Q3.45 45.00 3.42 45.02Q3.39 45.03 3.32 45.03L3.32 45.03L3.09 45.03Q3.06 45.03 2.97 45.08Q2.89 45.13 2.83 45.13L2.83 45.13L2.79 45.13Q2.23 45.13 2.08 45.03Q1.94 44.93 1.97 44.97L1.97 44.97L1.97 44.80Q1.57 44.80 1.44 44.36Q1.31 43.91 1.31 43.61L1.31 43.61L1.54 43.42Q1.61 43.38 1.61 43.38L1.61 43.38Q1.77 43.38 1.87 43.40Q1.97 43.42 2.10 43.42L2.10 43.42Q2.43 43.42 2.56 43.38Q2.69 43.35 2.83 43.19L2.83 43.19L3.09 43.19Q3.59 43.19 3.88 43.07Q4.18 42.95 4.64 42.95L4.64 42.95Q4.77 42.95 5.05 43.00Q5.33 43.05 5.47 43.05L5.47 43.05L5.50 43.05L5.57 43.02Q5.60 43.05 5.66 43.05L5.66 43.05Q5.80 43.05 5.93 42.97Q6.06 42.89 6.09 42.89L6.09 42.89Q6.13 42.92 6.13 42.92L6.13 42.92Q6.26 42.92 6.57 42.71Q6.89 42.49 7.12 42.49L7.12 42.49Q7.22 42.49 7.33 42.51Q7.45 42.53 7.61 42.53L7.61 42.53Q7.88 42.53 8.17 42.43L8.17 42.43L8.34 42.43Q8.73 42.43 9.11 42.38Q9.49 42.33 9.89 42.33L9.89 42.33L10.05 42.33Q10.12 42.33 10.27 42.29Q10.42 42.26 10.68 42.26L10.68 42.26Q10.78 42.26 10.88 42.26Q10.98 42.26 11.14 42.29L11.14 42.29L11.97 42.29Q12.36 42.29 12.71 42.34Q13.06 42.39 13.52 42.62L13.52 42.62Q13.45 42.69 13.45 42.79L13.45 42.79Q13.45 42.86 13.50 43.14Q13.55 43.42 13.55 43.48L13.55 43.48Q13.58 43.48 13.57 43.47Q13.55 43.45 13.58 43.45L13.58 43.45Q13.62 43.45 13.65 43.48L13.65 43.48Q13.09 43.88 12.46 43.99Q11.84 44.11 11.41 44.21L11.41 44.21Q11.34 44.21 10.88 44.31Q10.42 44.41 9.13 44.67L9.13 44.67L9.66 44.97Q9.49 45.13 9.39 45.41Q9.29 45.69 9.29 45.92L9.29 45.92L9.59 45.83L9.23 46.62L9.23 47.94Q9.00 48.04 9.00 48.37L9.00 48.37L9.16 48.27L9.23 48.27Q9.29 48.27 9.29 48.43L9.29 48.43L9.29 48.53Q9.29 48.60 9.26 48.73Q9.23 48.86 9.23 48.96L9.23 48.96L8.93 49.19L8.93 49.72Q9.06 49.72 9.06 49.59L9.06 49.59Q9.06 49.49 9.03 49.47Q9.00 49.46 9.00 49.39L9.00 49.39Q9.00 49.19 9.16 49.19L9.16 49.19Q9.29 49.19 9.29 49.26L9.29 49.26L9.29 49.52L9.29 49.72Q9.29 49.92 9.23 49.98L9.23 49.98L9.10 50.02L9.06 50.25L8.93 50.18Q8.87 50.18 8.85 50.36Q8.83 50.54 8.80 50.78Q8.77 51.01 8.77 51.22Q8.77 51.44 8.77 51.47L8.77 51.47Q8.77 51.60 8.80 51.70L8.80 51.70L8.87 51.63Q8.87 51.57 8.90 51.47Q8.93 51.37 8.93 51.34L8.93 51.34L8.87 51.27L8.87 51.14Q8.87 51.07 8.88 50.99Q8.90 50.91 9.06 50.91L9.06 50.91Q9.16 50.91 9.16 51.14L9.16 51.14Q9.16 51.27 9.11 51.34Q9.06 51.40 9.06 51.57L9.06 51.57Q9.06 51.63 9.08 51.68Q9.10 51.73 9.10 51.80L9.10 51.80Q9.10 51.86 9.05 51.95Q9.00 52.03 9.00 52.10L9.00 52.10Q9.00 52.16 9.03 52.34Q9.06 52.52 9.06 52.62L9.06 52.62Q9.06 52.72 9.00 52.84Q8.93 52.95 8.87 53.09L8.87 53.09L8.67 53.38L8.67 54.67Q8.57 54.83 8.57 55.00L8.57 55.00Q8.57 55.10 8.58 55.21Q8.60 55.33 8.60 55.40L8.60 55.40ZM8.44 49.42L8.37 49.65L8.60 49.69Q8.60 49.32 8.63 48.88Q8.67 48.43 8.67 48.07L8.67 48.07L8.60 47.74Q8.54 47.77 8.50 47.97Q8.47 48.17 8.44 48.42Q8.40 48.66 8.39 48.89Q8.37 49.13 8.37 49.19L8.37 49.19L8.44 49.42ZM8.34 50.61L8.34 52.13Q8.54 51.20 8.54 50.31L8.54 50.31L8.54 49.98L8.34 50.61ZM5.43 52.59L5.47 52.59Q5.43 52.62 5.43 52.66L5.43 52.66Q5.43 52.72 5.50 52.76Q5.57 52.79 5.63 52.85L5.63 52.85L5.63 52.76Q5.63 52.69 5.61 52.59Q5.60 52.49 5.50 52.49L5.50 52.49Q5.33 52.49 5.20 52.69L5.20 52.69Q5.33 52.59 5.43 52.59L5.43 52.59ZM5.47 52.23L5.47 52.23Q5.40 52.23 5.40 52.33L5.40 52.33Q5.40 52.43 5.47 52.43L5.47 52.43Q5.53 52.43 5.53 52.36L5.53 52.36Q5.53 52.29 5.47 52.23ZM18.14 52.33L18.17 52.26Q18.37 52.26 18.48 52.16Q18.60 52.06 18.67 51.96Q18.73 51.86 18.81 51.77Q18.90 51.67 19.03 51.67L19.03 51.67Q19.46 51.67 19.84 51.32Q20.22 50.97 20.22 49.69L20.22 49.69L20.22 49.06Q20.22 48.89 20.09 48.76Q19.95 48.63 19.89 48.63L19.89 48.63Q19.85 48.66 19.66 48.76Q19.46 48.86 19.23 49.01Q19.00 49.16 18.77 49.32Q18.53 49.49 18.40 49.65L18.40 49.65L18.40 49.98Q18.34 50.51 18.14 51.14Q17.94 51.77 17.94 52.33L17.94 52.33L18.14 52.33ZM22.89 51.11L22.89 51.30L22.46 51.80L22.26 51.93Q21.90 52.10 21.57 52.28Q21.24 52.46 20.91 52.56L20.91 52.56L20.78 52.69L20.61 52.69Q20.42 52.69 20.37 52.82Q20.32 52.95 20.12 52.99L20.12 52.99Q19.76 53.05 19.66 53.12Q19.56 53.18 19.56 53.22L19.56 53.22Q19.59 53.28 19.59 53.28L19.59 53.28Q19.59 53.32 19.47 53.35Q19.36 53.38 19.23 53.40Q19.10 53.42 19.00 53.43Q18.90 53.45 18.93 53.45L18.93 53.45L18.77 53.45Q18.67 53.55 18.24 53.58Q17.81 53.61 17.54 53.78L17.54 53.78L17.74 54.57Q17.91 54.64 18.19 54.70Q18.47 54.77 18.77 54.80Q19.06 54.83 19.33 54.85Q19.59 54.87 19.72 54.87L19.72 54.87Q20.18 54.87 20.63 54.82Q21.08 54.77 21.57 54.77L21.57 54.77Q22.03 54.77 22.46 54.85Q22.89 54.93 23.29 55.20L23.29 55.20L23.29 55.43Q23.29 55.59 23.27 55.81Q23.25 56.02 23.15 56.09L23.15 56.09L23.02 56.15Q22.99 56.19 22.76 56.24Q22.53 56.29 22.23 56.35Q21.93 56.42 21.62 56.47Q21.31 56.52 21.14 56.52L21.14 56.52Q20.48 56.52 19.84 56.53Q19.19 56.55 18.53 56.55L18.53 56.55Q18.04 56.55 17.46 56.39Q16.88 56.22 16.37 55.92Q15.86 55.63 15.48 55.20Q15.10 54.77 15.00 54.24L15.00 54.24L15.10 54.01Q15.10 53.94 15.14 53.75Q15.17 53.55 15.20 53.28L15.20 53.28L15.20 52.99L15.43 52.99L15.47 52.95Q15.47 52.76 15.50 52.72L15.50 52.72Q15.50 52.69 15.45 52.64Q15.40 52.59 15.40 52.52L15.40 52.52Q15.40 52.49 15.50 52.43L15.50 52.43L15.53 52.00Q15.53 51.86 15.55 51.70Q15.56 51.53 15.70 51.27L15.70 51.27L15.80 51.20Q15.80 51.07 15.66 50.94L15.66 50.94Q15.76 50.91 15.80 50.74Q15.83 50.58 15.89 50.58L15.89 50.58Q15.93 50.58 15.93 50.59Q15.93 50.61 15.96 50.61L15.96 50.61L16.09 50.71Q16.13 50.68 16.13 50.68L16.13 50.68L16.22 50.68Q16.32 50.68 16.32 50.61L16.32 50.61Q16.32 50.45 16.17 50.33Q16.03 50.21 16.03 50.05L16.03 50.05Q16.03 49.98 16.06 49.95L16.06 49.95Q16.06 49.88 16.03 49.85Q15.99 49.82 15.99 49.79L15.99 49.79L16.09 49.75Q16.29 49.26 16.54 48.99Q16.79 48.73 17.08 48.47L17.08 48.47L17.25 48.37Q17.71 48.07 18.15 47.71Q18.60 47.34 19.16 47.34L19.16 47.34Q19.72 47.34 20.37 47.46Q21.01 47.57 21.60 47.57L21.60 47.57Q22.40 47.97 22.51 48.05Q22.63 48.14 22.69 48.14L22.69 48.14L22.66 48.47L22.92 48.66L23.02 48.86L22.79 49.16L22.99 49.42L22.79 49.72Q22.73 49.79 22.73 49.88Q22.73 49.98 22.73 50.05L22.73 50.05L22.76 50.08L22.79 50.25L22.73 50.61L22.96 50.71L22.96 50.91L22.82 51.01L22.89 51.11ZM22.96 49.95L22.96 49.95L23.02 49.95Q23.09 49.95 23.09 50.05L23.09 50.05Q23.09 50.18 22.96 50.18L22.96 50.18Q22.89 50.18 22.89 50.05L22.89 50.05Q22.89 49.95 22.96 49.95ZM23.09 50.41L23.09 50.41Q23.09 50.54 23.02 50.54L23.02 50.54Q22.96 50.54 22.96 50.41L22.96 50.41Q22.96 50.35 22.99 50.35L22.99 50.35Q23.02 50.35 23.09 50.41ZM33.09 46.55L33.09 46.55Q33.35 46.49 33.47 46.39Q33.58 46.29 33.75 46.29L33.75 46.29Q33.81 46.29 33.85 46.30Q33.88 46.32 33.95 46.32L33.95 46.32L34.54 46.55Q34.64 46.62 34.64 46.78L34.64 46.78Q34.67 47.34 34.06 48.00Q33.45 48.66 32.53 49.82L32.53 49.82L31.40 51.20L31.40 51.27L32.96 52.66L33.35 53.15L33.52 53.15Q33.58 53.18 33.70 53.33Q33.81 53.48 33.88 53.51L33.88 53.51L33.98 53.88Q34.08 53.98 34.31 54.13Q34.54 54.27 34.64 54.34L34.64 54.34L34.51 54.50L34.18 54.47L34.70 54.77L34.84 54.74Q34.84 54.70 34.87 54.70L34.87 54.70Q35.00 54.70 35.13 54.90L35.13 54.90L35.13 55.00L34.97 55.00Q34.84 55.00 34.82 55.02Q34.80 55.03 34.64 55.07L34.64 55.07L34.67 55.16Q34.67 55.20 34.74 55.26L34.74 55.26L34.77 55.30Q34.84 55.46 34.84 55.46L34.84 55.46Q34.84 55.46 34.87 55.46L34.87 55.46L34.97 55.49L34.97 55.40Q35.03 55.40 35.18 55.36Q35.33 55.33 35.46 55.33L35.46 55.33Q35.60 55.33 35.60 55.40L35.60 55.40L35.60 55.53Q35.60 55.56 35.63 55.59L35.63 55.59Q35.56 55.66 35.56 55.79L35.56 55.79L35.56 55.96L35.73 55.89L35.96 56.15Q36.06 56.29 36.14 56.35Q36.22 56.42 36.29 56.55L36.29 56.55L36.32 56.68L37.08 57.21Q37.05 57.31 36.85 57.52Q36.65 57.74 36.37 57.95Q36.09 58.17 35.81 58.32Q35.53 58.46 35.30 58.46L35.30 58.46Q35.23 58.46 35.10 58.40Q34.97 58.33 34.87 58.33L34.87 58.33L34.80 58.33Q34.74 58.33 34.70 58.35Q34.67 58.37 34.61 58.40L34.61 58.40Q34.44 58.27 34.31 58.05Q34.18 57.84 33.91 57.67L33.91 57.67L33.78 57.64L33.58 57.44Q33.25 57.11 33.02 56.86Q32.79 56.62 32.61 56.40Q32.43 56.19 32.25 55.94Q32.06 55.69 31.83 55.36L31.83 55.36Q31.50 55.03 31.12 54.69Q30.74 54.34 30.40 54.06Q30.05 53.78 29.82 53.60Q29.59 53.42 29.56 53.42L29.56 53.42Q29.39 53.42 29.29 53.53Q29.19 53.65 29.00 53.84L29.00 53.84L28.96 53.68Q28.96 53.65 28.93 53.65L28.93 53.65Q28.90 53.65 28.80 53.75Q28.70 53.84 28.58 53.96Q28.47 54.08 28.37 54.19Q28.27 54.31 28.24 54.34L28.24 54.34L28.34 54.44Q28.40 54.34 28.48 54.19Q28.57 54.04 28.70 54.04L28.70 54.04L28.80 54.04L28.80 54.17Q28.80 54.21 28.62 54.42Q28.43 54.64 28.24 54.77L28.24 54.77L26.45 56.35L25.99 56.25L25.73 55.92L25.27 55.07Q25.43 54.90 25.61 54.67Q25.79 54.44 25.99 54.34L25.99 54.34L27.48 52.82L27.97 52.10L27.91 51.83L27.97 51.77L28.10 51.83L28.17 51.67Q27.48 50.87 27.11 50.17Q26.75 49.46 26.06 48.83L26.06 48.83Q26.03 48.83 25.89 48.52Q25.76 48.20 25.70 48.20L25.70 48.20L25.63 48.14Q25.56 47.94 25.43 47.72Q25.30 47.51 25.27 47.31L25.27 47.31L25.27 47.21Q25.30 47.01 25.50 46.73Q25.70 46.45 26.03 46.45L26.03 46.45L26.98 46.22Q27.44 46.22 27.69 46.62Q27.94 47.01 28.24 47.48L28.24 47.48Q28.24 47.51 28.40 47.59Q28.57 47.67 28.63 47.77L28.63 47.77Q28.83 47.97 29.00 48.25Q29.16 48.53 29.29 48.78Q29.42 49.03 29.54 49.22Q29.66 49.42 29.79 49.46L29.79 49.46L30.12 49.82Q30.22 49.72 30.35 49.72L30.35 49.72L30.45 49.88Q30.55 49.55 30.66 49.44Q30.78 49.32 30.99 49.14Q31.21 48.96 31.55 48.58Q31.90 48.20 32.46 47.38L32.46 47.38L32.56 47.24L32.46 47.18Q32.49 47.18 32.49 47.15L32.49 47.15L32.49 47.01Q32.53 46.95 32.79 46.78Q33.05 46.62 33.09 46.55ZM48.70 47.97L48.73 47.97L48.66 48.14L48.70 47.97L47.87 48.30Q47.84 48.33 47.77 48.33L47.77 48.33Q47.71 48.33 47.71 48.27L47.71 48.27L47.54 48.30Q47.28 48.33 46.86 48.37Q46.45 48.40 46.06 48.43Q45.66 48.47 45.38 48.55Q45.10 48.63 45.10 48.76L45.10 48.76L45.10 48.80L45.17 48.86Q45.10 48.93 45.07 48.93Q45.03 48.93 45.03 48.99L45.03 48.99Q45.03 49.06 45.10 49.16L45.10 49.16Q45.10 49.32 45.00 49.32Q44.90 49.32 44.90 49.59L44.90 49.59Q44.90 49.72 45.10 49.72L45.10 49.72Q44.90 49.82 44.90 50.15L44.90 50.15Q44.90 50.41 45.00 50.45L45.00 50.45L45.10 50.78Q44.87 51.01 44.87 51.20L44.87 51.20Q44.87 51.37 44.90 51.44L44.90 51.44Q44.90 51.70 44.88 51.80Q44.87 51.90 44.87 51.91Q44.87 51.93 44.85 51.95Q44.84 51.96 44.84 52.06L44.84 52.06L44.87 52.10Q44.87 52.36 44.75 52.74Q44.64 53.12 44.57 53.18L44.57 53.18L44.51 53.18L44.51 53.32L44.67 53.32Q44.60 53.38 44.54 53.42Q44.47 53.45 44.47 53.51L44.47 53.51Q44.47 53.55 44.51 53.58L44.51 53.58L44.74 53.58L44.51 54.64L44.64 54.70Q44.84 54.77 45.20 54.77L45.20 54.77Q45.50 54.74 45.73 54.62Q45.96 54.50 46.22 54.47L46.22 54.47L46.32 54.47Q46.45 54.47 46.63 54.46Q46.82 54.44 46.98 54.44L46.98 54.44L48.53 54.44Q48.56 54.44 48.70 54.49Q48.83 54.54 48.98 54.60Q49.13 54.67 49.22 54.74Q49.32 54.80 49.32 54.80L49.32 54.80Q49.32 54.97 49.13 55.18Q48.93 55.40 48.76 55.53L48.76 55.53L47.28 55.99L45.36 56.19Q45.10 56.19 44.64 56.44Q44.18 56.68 43.71 56.68L43.71 56.68L43.71 56.55L42.69 56.45Q42.33 56.19 42.16 56.12Q42.00 56.06 41.90 56.04Q41.80 56.02 41.73 55.99Q41.67 55.96 41.50 55.79L41.50 55.79Q41.50 55.69 41.50 55.38Q41.50 55.07 41.52 54.74Q41.54 54.41 41.57 54.13Q41.60 53.84 41.67 53.78L41.67 53.78L41.77 55.20L41.90 55.40Q41.90 54.93 41.91 54.01Q41.93 53.09 42.03 51.86L42.03 51.86L42.00 51.93Q41.96 51.96 41.95 51.80Q41.93 51.63 41.93 51.44L41.93 51.44Q41.93 51.07 41.96 51.07L41.96 51.07L42.00 51.07L42.10 51.44L42.36 49.59L42.23 49.59L42.23 49.26L42.23 49.03Q42.03 49.09 41.77 49.09Q41.50 49.09 41.27 49.26L41.27 49.26L40.58 49.29L40.31 49.26L40.15 49.32L40.05 49.22Q39.79 49.22 39.42 48.76Q39.06 48.30 39.06 47.84L39.06 47.84Q39.06 47.64 39.47 47.53Q39.89 47.41 40.45 47.31Q41.01 47.21 41.58 47.13Q42.16 47.05 42.53 46.95L42.53 46.95Q42.62 46.65 42.67 46.16Q42.72 45.66 42.74 45.23Q42.76 44.80 42.77 44.54Q42.79 44.27 42.79 44.41L42.79 44.41Q42.79 44.37 42.86 44.16Q42.92 43.94 43.00 43.70Q43.09 43.45 43.15 43.24Q43.22 43.02 43.22 42.95L43.22 42.95Q43.19 42.92 43.19 42.86L43.19 42.86Q43.19 42.76 43.25 42.59Q43.32 42.43 43.32 42.33L43.32 42.33L43.38 42.29Q43.61 42.29 44.06 42.43Q44.51 42.56 44.93 42.77Q45.36 42.99 45.69 43.30Q46.02 43.61 46.02 43.98L46.02 43.98Q46.02 44.34 45.69 44.84Q45.36 45.33 45.36 45.89L45.36 45.89L45.17 46.65Q46.06 46.65 47.00 46.57Q47.94 46.49 48.40 46.49L48.40 46.49Q48.66 46.49 48.84 46.58Q49.03 46.68 49.03 47.05L49.03 47.05L48.70 47.97ZM41.60 52.56L41.67 53.48L41.50 53.51Q41.50 53.45 41.52 53.05Q41.54 52.66 41.60 52.56L41.60 52.56ZM43.12 54.54L42.95 54.54L42.79 54.90L42.79 55.23L43.12 54.54ZM43.12 53.88L43.12 53.88Q42.99 53.88 42.99 54.04L42.99 54.04Q42.99 54.21 43.12 54.21L43.12 54.21Q43.28 54.21 43.28 54.04L43.28 54.04Q43.28 53.88 43.12 53.88ZM51.44 52.26L51.34 50.48L51.40 49.42Q51.53 49.13 51.53 48.73L51.53 48.73Q51.53 48.50 51.44 48.20L51.44 48.20L51.34 47.81L51.44 47.21Q51.44 47.11 51.39 46.90Q51.34 46.68 51.34 46.62L51.34 46.62L51.47 45.43L51.70 44.84L51.70 44.24Q51.70 44.18 51.77 43.98Q51.83 43.78 51.83 43.71L51.83 43.71L51.93 43.65L51.93 44.01L52.00 44.01Q52.06 43.68 52.21 43.42Q52.36 43.15 52.36 42.89L52.36 42.89L52.36 42.82L52.13 42.66Q52.13 42.49 52.18 42.34Q52.23 42.20 52.23 42.06L52.23 42.06L52.43 41.63L52.69 41.54Q52.72 41.54 53.04 41.57Q53.35 41.60 53.73 41.63Q54.11 41.67 54.42 41.70Q54.74 41.73 54.74 41.73L54.74 41.73L55.23 42.13L55.43 42.72L55.43 42.99Q55.43 43.85 55.23 44.65Q55.03 45.46 55.03 46.42L55.03 46.42L55.03 47.41L55.03 47.61Q54.77 48.17 54.65 48.71Q54.54 49.26 54.54 49.92L54.54 49.92L54.54 50.31Q54.54 50.61 54.59 51.09Q54.64 51.57 54.64 51.80L54.64 51.80Q54.64 51.83 54.69 52.03Q54.74 52.23 54.80 52.46Q54.87 52.69 54.92 52.87Q54.97 53.05 55.00 53.09L55.00 53.09Q55.26 53.65 55.48 53.91Q55.69 54.17 55.87 54.27Q56.06 54.37 56.25 54.36Q56.45 54.34 56.65 54.34L56.65 54.34Q56.88 54.34 57.01 54.27L57.01 54.27Q57.34 54.27 57.71 54.14Q58.07 54.01 58.40 53.76Q58.73 53.51 58.94 53.18Q59.16 52.85 59.16 52.49L59.16 52.49L59.16 52.43L59.55 50.68Q59.52 50.64 59.50 50.45Q59.49 50.25 59.47 50.02Q59.45 49.79 59.45 49.59Q59.45 49.39 59.45 49.32L59.45 49.32L59.49 48.96Q59.49 48.83 59.57 48.66Q59.65 48.50 59.65 48.43L59.65 48.43L59.82 48.50L59.69 47.94L59.78 47.64Q59.72 47.54 59.70 47.34Q59.69 47.15 59.69 47.05L59.69 47.05Q59.62 47.05 59.52 47.11Q59.42 47.18 59.42 47.21L59.42 47.21L59.29 47.15L59.29 46.68Q59.29 46.12 59.32 45.81Q59.36 45.50 59.36 45.00L59.36 45.00L58.89 43.52L59.09 43.45Q59.16 43.42 59.24 43.38Q59.32 43.35 59.39 43.35L59.39 43.35L59.59 43.32Q59.88 43.25 59.98 43.24Q60.08 43.22 60.35 43.22L60.35 43.22Q60.51 43.22 60.58 43.27Q60.64 43.32 60.81 43.32L60.81 43.32L60.87 43.32Q60.84 43.28 60.81 43.28L60.81 43.28Q60.77 43.28 60.77 43.25L60.77 43.25Q60.77 43.22 60.87 43.22L60.87 43.22Q61.14 43.22 61.43 43.45Q61.73 43.68 61.80 44.11L61.80 44.11Q61.90 44.37 62.03 44.60L62.03 44.60Q62.09 44.80 62.18 45.03Q62.26 45.26 62.26 45.43L62.26 45.43Q62.26 45.46 62.24 45.50Q62.23 45.53 62.23 45.59L62.23 45.59L62.23 45.73Q62.23 45.99 62.28 46.21Q62.33 46.42 62.36 46.68L62.36 46.68L62.29 46.88L62.29 49.36L62.29 49.42Q62.29 50.18 62.28 50.56Q62.26 50.94 62.21 51.22Q62.16 51.50 62.08 51.75Q62.00 52.00 61.90 52.49L61.90 52.49Q61.80 52.76 61.67 52.92Q61.53 53.09 61.47 53.35L61.47 53.35Q61.27 53.75 61.27 54.03Q61.27 54.31 61.01 54.77L61.01 54.77Q60.44 55.33 59.87 55.64Q59.29 55.96 58.78 56.09Q58.27 56.22 57.82 56.24Q57.38 56.25 57.08 56.25L57.08 56.25Q56.29 56.25 55.53 56.15Q54.77 56.06 54.08 55.74Q53.38 55.43 52.80 54.83Q52.23 54.24 51.80 53.25L51.80 53.25Q51.70 53.05 51.57 52.69Q51.44 52.33 51.44 52.26L51.44 52.26ZM52.03 42.92L52.16 42.92L52.16 42.99Q52.16 43.02 52.13 43.10Q52.10 43.19 52.06 43.25L52.06 43.25L52.00 43.48L51.86 43.48L52.03 42.92ZM73.97 47.97L74.01 47.97L73.94 48.14L73.97 47.97L73.15 48.30Q73.12 48.33 73.05 48.33L73.05 48.33Q72.98 48.33 72.98 48.27L72.98 48.27L72.82 48.30Q72.56 48.33 72.14 48.37Q71.73 48.40 71.33 48.43Q70.94 48.47 70.66 48.55Q70.38 48.63 70.38 48.76L70.38 48.76L70.38 48.80L70.44 48.86Q70.38 48.93 70.34 48.93Q70.31 48.93 70.31 48.99L70.31 48.99Q70.31 49.06 70.38 49.16L70.38 49.16Q70.38 49.32 70.28 49.32Q70.18 49.32 70.18 49.59L70.18 49.59Q70.18 49.72 70.38 49.72L70.38 49.72Q70.18 49.82 70.18 50.15L70.18 50.15Q70.18 50.41 70.28 50.45L70.28 50.45L70.38 50.78Q70.15 51.01 70.15 51.20L70.15 51.20Q70.15 51.37 70.18 51.44L70.18 51.44Q70.18 51.70 70.16 51.80Q70.15 51.90 70.15 51.91Q70.15 51.93 70.13 51.95Q70.11 51.96 70.11 52.06L70.11 52.06L70.15 52.10Q70.15 52.36 70.03 52.74Q69.92 53.12 69.85 53.18L69.85 53.18L69.78 53.18L69.78 53.32L69.95 53.32Q69.88 53.38 69.82 53.42Q69.75 53.45 69.75 53.51L69.75 53.51Q69.75 53.55 69.78 53.58L69.78 53.58L70.01 53.58L69.78 54.64L69.92 54.70Q70.11 54.77 70.48 54.77L70.48 54.77Q70.77 54.74 71.00 54.62Q71.24 54.50 71.50 54.47L71.50 54.47L71.60 54.47Q71.73 54.47 71.91 54.46Q72.09 54.44 72.26 54.44L72.26 54.44L73.81 54.44Q73.84 54.44 73.97 54.49Q74.11 54.54 74.25 54.60Q74.40 54.67 74.50 54.74Q74.60 54.80 74.60 54.80L74.60 54.80Q74.60 54.97 74.40 55.18Q74.21 55.40 74.04 55.53L74.04 55.53L72.56 55.99L70.64 56.19Q70.38 56.19 69.92 56.44Q69.45 56.68 68.99 56.68L68.99 56.68L68.99 56.55L67.97 56.45Q67.61 56.19 67.44 56.12Q67.28 56.06 67.18 56.04Q67.08 56.02 67.01 55.99Q66.95 55.96 66.78 55.79L66.78 55.79Q66.78 55.69 66.78 55.38Q66.78 55.07 66.80 54.74Q66.81 54.41 66.85 54.13Q66.88 53.84 66.95 53.78L66.95 53.78L67.04 55.20L67.18 55.40Q67.18 54.93 67.19 54.01Q67.21 53.09 67.31 51.86L67.31 51.86L67.28 51.93Q67.24 51.96 67.23 51.80Q67.21 51.63 67.21 51.44L67.21 51.44Q67.21 51.07 67.24 51.07L67.24 51.07L67.28 51.07L67.37 51.44L67.64 49.59L67.51 49.59L67.51 49.26L67.51 49.03Q67.31 49.09 67.04 49.09Q66.78 49.09 66.55 49.26L66.55 49.26L65.86 49.29L65.59 49.26L65.43 49.32L65.33 49.22Q65.06 49.22 64.70 48.76Q64.34 48.30 64.34 47.84L64.34 47.84Q64.34 47.64 64.75 47.53Q65.16 47.41 65.72 47.31Q66.29 47.21 66.86 47.13Q67.44 47.05 67.80 46.95L67.80 46.95Q67.90 46.65 67.95 46.16Q68.00 45.66 68.02 45.23Q68.03 44.80 68.05 44.54Q68.07 44.27 68.07 44.41L68.07 44.41Q68.07 44.37 68.13 44.16Q68.20 43.94 68.28 43.70Q68.36 43.45 68.43 43.24Q68.50 43.02 68.50 42.95L68.50 42.95Q68.46 42.92 68.46 42.86L68.46 42.86Q68.46 42.76 68.53 42.59Q68.60 42.43 68.60 42.33L68.60 42.33L68.66 42.29Q68.89 42.29 69.34 42.43Q69.78 42.56 70.21 42.77Q70.64 42.99 70.97 43.30Q71.30 43.61 71.30 43.98L71.30 43.98Q71.30 44.34 70.97 44.84Q70.64 45.33 70.64 45.89L70.64 45.89L70.44 46.65Q71.33 46.65 72.27 46.57Q73.22 46.49 73.68 46.49L73.68 46.49Q73.94 46.49 74.12 46.58Q74.30 46.68 74.30 47.05L74.30 47.05L73.97 47.97ZM66.88 52.56L66.95 53.48L66.78 53.51Q66.78 53.45 66.80 53.05Q66.81 52.66 66.88 52.56L66.88 52.56ZM68.40 54.54L68.23 54.54L68.07 54.90L68.07 55.23L68.40 54.54ZM68.40 53.88L68.40 53.88Q68.27 53.88 68.27 54.04L68.27 54.04Q68.27 54.21 68.40 54.21L68.40 54.21Q68.56 54.21 68.56 54.04L68.56 54.04Q68.56 53.88 68.40 53.88ZM77.21 56.09L77.04 55.96Q76.78 55.82 76.71 55.63Q76.65 55.43 76.65 55.13L76.65 55.13L76.65 54.64L77.21 48.89Q77.21 48.86 77.19 48.85Q77.18 48.83 77.18 48.76L77.18 48.76Q77.18 48.80 77.21 48.53Q77.24 48.27 77.31 47.94Q77.37 47.61 77.44 47.33Q77.51 47.05 77.57 47.05L77.57 47.05Q77.64 47.05 77.82 47.11Q78.00 47.18 78.03 47.18L78.03 47.18Q78.40 47.28 78.88 47.36Q79.35 47.44 79.80 47.59Q80.24 47.74 80.56 48.04Q80.87 48.33 80.87 48.86L80.87 48.86L80.51 49.59Q80.34 49.92 80.23 50.26Q80.11 50.61 80.08 50.94L80.08 50.94Q80.08 50.97 80.08 51.16Q80.08 51.34 80.06 51.58Q80.05 51.83 80.05 52.10Q80.05 52.36 80.05 52.56L80.05 52.56L80.05 53.09L80.11 53.15Q80.11 53.18 80.06 53.27Q80.01 53.35 80.01 53.45L80.01 53.45L80.05 53.55Q80.05 53.58 79.98 53.61Q79.91 53.65 79.88 53.65L79.88 53.65L79.95 53.88Q79.91 53.88 79.91 53.91L79.91 53.91L79.85 54.01Q79.85 53.98 79.83 53.96Q79.82 53.94 79.82 53.91L79.82 53.91L79.72 53.88L79.62 53.94Q79.58 54.01 79.55 54.34Q79.52 54.67 79.45 54.74L79.45 54.74L79.52 54.74Q79.62 54.74 79.80 54.46Q79.98 54.17 80.01 54.17L80.01 54.17Q79.95 54.54 79.93 55.02Q79.91 55.49 79.91 55.86L79.91 55.86L80.01 56.12L79.65 56.02L79.52 56.12Q79.45 56.12 79.25 56.19L79.25 56.19L79.12 56.25L78.63 56.02L78.46 56.02L77.97 56.25L77.70 56.22L77.70 56.09L77.21 56.09ZM77.18 44.41L77.18 44.41Q77.18 43.71 77.39 43.19Q77.60 42.66 77.90 42.06L77.90 42.06L78.07 42.16Q78.10 42.16 78.18 42.21Q78.26 42.26 78.36 42.26L78.36 42.26L79.22 42.26Q79.39 42.26 79.58 42.49Q79.78 42.72 79.85 42.72L79.85 42.72Q79.88 42.72 79.93 42.71Q79.98 42.69 80.05 42.69L80.05 42.69Q80.28 42.69 80.49 42.84Q80.71 42.99 80.86 43.22Q81.00 43.45 81.09 43.68Q81.17 43.91 81.17 44.11L81.17 44.11Q81.17 44.34 80.86 44.60Q80.54 44.87 80.13 45.08Q79.72 45.30 79.27 45.45Q78.83 45.59 78.56 45.59L78.56 45.59Q78.03 45.59 77.62 45.23Q77.21 44.87 77.18 44.41ZM79.12 54.11L79.12 54.11Q79.12 54.17 79.14 54.34Q79.16 54.50 79.22 54.57L79.22 54.57L79.29 54.17L79.45 54.11L79.45 53.94Q79.35 53.94 79.24 54.01Q79.12 54.08 79.12 54.11ZM79.09 55.79L79.16 56.02L79.42 55.99L79.42 55.82L79.09 55.79ZM79.62 56.25L79.62 56.25Q79.72 56.32 79.72 56.42L79.72 56.42Q79.72 56.55 79.62 56.55L79.62 56.55Q79.52 56.55 79.52 56.42L79.52 56.42Q79.52 56.25 79.62 56.25ZM79.98 53.09L79.75 53.28L79.75 53.38Q79.75 53.45 79.82 53.45L79.82 53.45L79.98 53.28L79.98 53.09ZM87.54 43.98L87.57 44.04Q87.50 44.31 87.39 44.44Q87.27 44.57 87.21 44.97L87.21 44.97L87.24 45.10Q87.24 45.23 87.11 45.38Q86.98 45.53 86.98 45.59L86.98 45.59L86.88 46.91Q86.88 47.01 86.86 47.11Q86.84 47.21 86.84 47.31L86.84 47.31L86.84 47.57Q86.84 47.74 86.71 47.97L86.71 47.97L86.78 48.30L86.78 48.27L86.81 48.33Q86.71 48.50 86.70 48.53Q86.68 48.56 86.65 48.70L86.65 48.70L86.75 48.76Q86.75 48.96 86.71 48.99L86.71 48.99L86.55 49.49Q86.55 49.55 86.45 49.65L86.45 49.65L86.28 49.59L85.46 50.54L85.52 50.54Q85.59 50.54 85.76 50.46Q85.92 50.38 86.09 50.31L86.09 50.31Q86.28 50.21 86.51 50.08L86.51 50.08Q86.51 50.35 86.43 50.53Q86.35 50.71 86.32 50.94L86.32 50.94L86.25 51.50L86.32 51.77L86.05 51.80L85.62 51.96L85.66 52.10L85.95 52.43L86.22 52.03L86.35 52.16L86.42 52.56L86.58 52.69L86.58 53.42L86.45 53.58L86.05 53.58L85.99 54.21L86.35 54.21Q86.42 54.24 86.47 54.32Q86.51 54.41 86.58 54.44L86.58 54.44L88.73 56.02L88.96 56.19L88.96 56.62L88.03 57.05Q87.83 57.05 87.80 57.03Q87.77 57.01 87.72 57.00Q87.67 56.98 87.50 56.91Q87.34 56.85 86.84 56.75L86.84 56.75Q86.71 56.68 86.71 56.68L86.71 56.68Q86.68 56.68 86.68 56.70Q86.68 56.72 86.65 56.72L86.65 56.72Q86.58 56.72 86.51 56.68L86.51 56.68L86.25 56.55Q86.25 56.58 86.12 56.58L86.12 56.58Q85.79 56.58 85.64 56.53Q85.49 56.48 85.36 56.32L85.36 56.32L84.04 55.66Q84.04 55.66 83.92 55.54Q83.81 55.43 83.69 55.28Q83.58 55.13 83.46 55.02Q83.35 54.90 83.35 54.87L83.35 54.87L83.15 53.75Q83.15 53.65 83.21 53.50Q83.28 53.35 83.28 53.22L83.28 53.22Q83.28 53.05 83.23 52.99Q83.18 52.92 83.18 52.76L83.18 52.76L83.18 52.66L83.18 52.62Q83.18 52.56 83.21 52.49Q83.25 52.43 83.25 52.33L83.25 52.33Q83.21 52.29 83.21 52.26L83.21 52.26L83.18 52.10L83.35 51.73Q83.35 51.70 83.36 51.68Q83.38 51.67 83.38 51.63L83.38 51.63L83.38 51.57Q83.38 51.47 83.28 51.45Q83.18 51.44 83.18 51.34L83.18 51.34L83.41 50.74L83.41 50.45Q83.41 50.28 83.40 50.12Q83.38 49.95 83.38 49.72L83.38 49.72Q83.48 49.06 83.58 48.68Q83.68 48.30 83.84 47.64L83.84 47.64Q83.91 47.64 83.91 47.54L83.91 47.54Q83.91 47.44 83.84 47.39Q83.78 47.34 83.78 47.05L83.78 47.05Q83.78 46.78 83.96 46.16Q84.14 45.53 84.14 44.97L84.14 44.97L84.01 44.97Q84.07 44.60 84.12 44.23Q84.17 43.85 84.30 43.42L84.30 43.42L84.44 42.99Q84.57 42.69 84.57 42.59L84.57 42.59L84.70 41.90L84.86 41.73Q85.03 41.77 85.48 41.80Q85.92 41.83 86.09 41.90L86.09 41.90Q86.22 41.77 86.42 41.77L86.42 41.77L86.81 41.77L87.80 42.16L87.67 42.69Q87.67 42.86 87.80 43.10Q87.93 43.35 87.93 43.45L87.93 43.45L87.54 43.98ZM86.88 53.71L86.94 53.45L87.54 53.45L87.14 53.58L87.01 53.98L86.88 53.71ZM84.30 44.54L84.30 44.54Q84.24 44.54 84.24 44.77L84.24 44.77Q84.24 44.93 84.34 44.93L84.34 44.93Q84.44 44.93 84.44 44.74L84.44 44.74Q84.44 44.54 84.30 44.54ZM86.55 48.66L86.35 48.89L86.35 48.96Q86.35 49.06 86.42 49.06L86.42 49.06Q86.48 49.06 86.58 48.86L86.58 48.86Q86.55 48.83 86.55 48.76L86.55 48.76L86.55 48.66ZM84.44 43.98L84.44 43.98Q84.30 44.01 84.30 44.11L84.30 44.11Q84.30 44.21 84.44 44.21L84.44 44.21Q84.57 44.21 84.57 44.11L84.57 44.11Q84.57 43.98 84.44 43.98ZM86.51 53.91L86.65 53.91L86.65 54.04L86.48 54.04L86.51 53.91ZM94.90 56.78L94.90 56.78Q94.80 56.78 94.62 56.77Q94.43 56.75 94.22 56.72Q94.01 56.68 93.82 56.63Q93.64 56.58 93.54 56.55L93.54 56.55L92.75 56.25Q92.69 56.25 92.49 56.17Q92.29 56.09 91.83 55.92L91.83 55.92L91.40 55.40Q91.40 55.10 91.73 54.83Q92.06 54.57 92.32 54.47L92.32 54.47Q92.36 54.47 92.50 54.50Q92.65 54.54 92.82 54.59Q92.98 54.64 93.13 54.67Q93.28 54.70 93.31 54.70L93.31 54.70Q93.61 54.70 94.10 54.67Q94.60 54.64 95.08 54.59Q95.56 54.54 95.90 54.46Q96.25 54.37 96.25 54.27L96.25 54.27L96.41 53.42Q96.41 53.05 96.18 52.82Q95.95 52.59 95.62 52.59L95.62 52.59Q95.52 52.59 95.46 52.66L95.46 52.66L94.57 52.49L94.24 52.49Q93.97 52.49 93.41 52.38Q92.85 52.26 92.31 52.03Q91.76 51.80 91.35 51.44Q90.94 51.07 90.94 50.58L90.94 50.58Q90.94 50.28 91.02 50.18Q91.10 50.08 91.23 49.75L91.23 49.75L91.13 49.69Q91.13 49.59 91.22 49.39Q91.30 49.19 91.42 48.98Q91.53 48.76 91.63 48.56Q91.73 48.37 91.76 48.27L91.76 48.27L92.92 46.98Q92.98 46.91 93.06 46.93Q93.15 46.95 93.15 46.88L93.15 46.88L93.91 46.39L94.07 46.39Q94.07 46.39 94.27 46.32L94.27 46.32L95.16 46.16L95.46 46.16L95.52 46.22Q95.69 46.29 95.87 46.29Q96.05 46.29 96.28 46.29L96.28 46.29L96.84 46.29Q96.91 46.29 97.03 46.47Q97.14 46.65 97.21 46.65L97.21 46.65Q97.50 46.85 97.73 46.98Q97.97 47.11 98.15 47.26Q98.33 47.41 98.43 47.62Q98.53 47.84 98.53 48.23L98.53 48.23Q98.53 48.33 98.36 48.40Q98.20 48.47 98.13 48.53L98.13 48.53L97.54 48.53Q97.50 48.53 97.39 48.56Q97.27 48.60 97.12 48.63Q96.98 48.66 96.84 48.70Q96.71 48.73 96.68 48.73L96.68 48.73L95.46 48.73Q95.39 48.89 95.08 48.94Q94.76 48.99 94.60 49.09L94.60 49.09Q94.14 49.36 94.04 49.67Q93.94 49.98 93.87 50.45L93.87 50.45Q94.37 50.78 95.05 50.91Q95.72 51.04 95.99 51.04L95.99 51.04L96.88 51.30Q97.77 51.57 98.11 52.05Q98.46 52.52 98.59 52.99L98.59 52.99L98.69 53.42L98.69 53.68Q98.69 53.81 98.66 53.91Q98.63 54.01 98.59 54.67L98.59 54.67L98.43 55.16L98.33 55.23Q97.97 55.73 97.72 56.01Q97.47 56.29 96.84 56.39L96.84 56.39Q96.81 56.39 96.76 56.45Q96.71 56.52 96.53 56.58Q96.35 56.65 95.97 56.72Q95.59 56.78 94.90 56.78ZM91.50 50.41L91.50 50.41Q91.50 50.71 91.75 50.84Q91.99 50.97 92.26 50.97L92.26 50.97L92.16 50.61L92.16 50.54Q92.16 50.31 92.19 50.28Q92.22 50.25 92.22 49.98L92.22 49.98Q92.09 49.98 92.09 49.85L92.09 49.85Q92.09 49.79 92.16 49.62Q92.22 49.46 92.29 49.42L92.29 49.42L92.29 49.62Q92.39 49.62 92.41 49.46Q92.42 49.29 92.42 49.19L92.42 49.19Q92.42 49.03 92.36 49.03L92.36 49.03L92.29 49.19L92.29 48.76L92.22 48.76Q92.19 48.86 92.09 49.01Q91.99 49.16 91.93 49.26L91.93 49.26Q91.86 49.49 91.84 49.72Q91.83 49.95 91.73 50.18L91.73 50.18Q91.66 50.35 91.58 50.31Q91.50 50.28 91.50 50.41ZM94.01 47.41L93.94 47.41Q93.38 47.41 93.00 47.86Q92.62 48.30 92.45 48.83L92.45 48.83L92.45 48.86Q92.72 48.86 92.80 48.53Q92.88 48.20 93.02 48.04L93.02 48.04Q93.05 48.00 93.18 47.94Q93.31 47.87 93.48 47.77Q93.64 47.67 93.79 47.59Q93.94 47.51 94.01 47.41L94.01 47.41Z" fill="#fff"></path></svg>